<?xml version="1.0" standalone="no"?>
<!DOCTYPE svg PUBLIC "-//W3C//DTD SVG 20010904//EN"
 "http://www.w3.org/TR/2001/REC-SVG-20010904/DTD/svg10.dtd">
<svg version="1.0" xmlns="http://www.w3.org/2000/svg"
 width="1884.000000pt" height="1885.000000pt" viewBox="0 0 1884.000000 1885.000000"
 preserveAspectRatio="xMidYMid meet">
<metadata>
Created by potrace 1.16, written by Peter Selinger 2001-2019
</metadata>
<g transform="translate(0.000000,1885.000000) scale(0.100000,-0.100000)"
fill="#000000" stroke="none">
<path d="M9175 18811 c-565 -237 -923 -650 -1051 -1211 -23 -99 -54 -403 -43
-415 3 -3 266 23 585 58 l579 62 8 55 c15 100 2 375 -22 465 -28 104 -89 226
-152 305 -62 76 -79 115 -79 178 0 105 79 279 201 441 39 51 69 94 67 96 -2 2
-44 -13 -93 -34z"/>
<path d="M10704 18705 c-531 -137 -924 -446 -1144 -898 -76 -157 -150 -397
-150 -488 0 -25 4 -29 28 -29 15 0 275 -16 577 -34 303 -19 553 -31 556 -28
18 21 58 214 68 330 17 193 -15 350 -105 521 -42 78 -45 91 -42 142 8 114 108
271 277 432 45 42 81 79 81 82 0 8 -7 6 -146 -30z"/>
<path d="M7474 18602 c-426 -286 -683 -663 -771 -1135 -22 -118 -24 -444 -4
-565 13 -82 14 -83 40 -77 14 3 267 77 561 164 l535 159 -3 63 c-5 108 -31
249 -63 344 -48 144 -100 226 -218 344 -58 59 -111 122 -122 145 -47 104 -7
292 117 538 24 48 41 88 37 88 -5 0 -53 -31 -109 -68z"/>
<path d="M12325 18324 c-387 -45 -646 -135 -895 -313 -215 -154 -392 -359
-515 -597 -48 -93 -95 -210 -95 -235 0 -12 121 -45 548 -149 301 -73 555 -135
564 -138 34 -8 142 255 169 411 19 112 7 295 -26 402 -42 134 -42 153 -6 232
41 87 176 221 319 317 56 37 102 70 102 72 0 5 -120 3 -165 -2z"/>
<path d="M5819 18062 c-242 -250 -390 -507 -463 -802 -65 -265 -62 -567 9
-835 32 -123 65 -207 79 -203 6 2 242 119 524 261 414 208 512 262 508 275 -3
9 -12 46 -21 82 -9 36 -32 106 -52 155 -81 206 -192 343 -370 458 -90 59 -104
72 -127 119 -50 102 -45 248 14 474 16 61 32 118 36 127 14 38 -20 10 -137
-111z"/>
<path d="M13520 17664 c-552 -50 -1008 -328 -1296 -790 -27 -44 -43 -79 -38
-84 19 -19 1046 -471 1059 -466 24 9 123 158 174 261 28 55 59 134 71 175 28
97 37 264 20 366 -20 127 17 205 146 303 72 54 274 161 344 182 22 7 40 15 40
19 0 20 -393 45 -520 34z"/>
<path d="M4378 17353 c-169 -236 -280 -479 -328 -715 -60 -293 -36 -624 65
-903 36 -99 122 -276 152 -314 l20 -24 461 349 c254 191 462 354 462 361 0 22
-90 193 -143 273 -65 97 -195 225 -277 273 -36 21 -102 52 -147 69 -147 56
-191 125 -213 336 -9 86 1 304 16 355 11 37 -15 14 -68 -60z"/>
<path d="M8990 17200 c-1769 -106 -3380 -763 -4705 -1919 -157 -137 -497 -473
-640 -631 -732 -814 -1269 -1733 -1611 -2755 -378 -1135 -490 -2334 -328
-3532 176 -1305 690 -2554 1489 -3618 515 -685 1176 -1311 1890 -1790 1007
-675 2152 -1103 3356 -1254 343 -43 547 -55 974 -55 514 0 822 23 1285 100
2832 466 5190 2478 6101 5204 199 594 313 1143 375 1800 21 227 30 875 15
1122 -44 725 -166 1356 -390 2028 -652 1953 -2056 3568 -3906 4492 -895 448
-1823 706 -2845 793 -218 19 -848 27 -1060 15z m750 -380 c1740 -82 3340 -737
4630 -1896 159 -143 485 -474 621 -629 298 -342 557 -699 794 -1095 133 -223
374 -701 469 -933 956 -2317 689 -4938 -712 -6997 -460 -676 -1037 -1280
-1692 -1772 -774 -580 -1661 -1005 -2595 -1243 -1298 -331 -2651 -307 -3932
70 -1183 349 -2272 999 -3148 1880 -1277 1284 -2029 2956 -2145 4770 -13 205
-13 695 0 900 101 1570 675 3034 1665 4240 792 966 1811 1714 2975 2183 962
387 2037 570 3070 522z"/>
<path d="M6765 14048 c-137 -151 -256 -329 -295 -443 -43 -125 -14 -242 60
-238 116 5 233 204 275 466 17 106 30 277 22 277 -3 0 -31 -28 -62 -62z"/>
<path d="M12051 14045 c-1 -90 23 -258 50 -354 43 -155 116 -269 201 -312 52
-26 73 -24 99 12 84 119 -30 369 -310 679 l-40 45 0 -70z"/>
<path d="M12743 13912 c-128 -394 -124 -680 11 -811 40 -39 65 -38 115 4 72
61 92 241 50 448 -18 89 -116 405 -137 443 -5 9 -19 -22 -39 -84z"/>
<path d="M6036 13831 c-75 -225 -99 -339 -100 -476 -1 -132 13 -184 62 -236
56 -58 82 -60 131 -9 124 128 129 409 15 773 -21 64 -41 117 -45 117 -4 0 -32
-76 -63 -169z"/>
<path d="M7320 13533 c-165 -9 -260 -26 -390 -69 -329 -109 -621 -292 -856
-536 -226 -236 -374 -508 -455 -836 l-33 -134 -46 -23 c-25 -12 -99 -59 -165
-102 -445 -294 -797 -701 -1005 -1163 -115 -256 -211 -658 -209 -875 l1 -60
23 105 c100 459 319 925 596 1270 104 129 320 338 452 437 60 44 159 110 220
147 l112 66 8 -82 c45 -491 116 -744 265 -940 l49 -65 -39 -59 c-267 -401
-283 -965 -41 -1485 l46 -99 -66 -127 c-84 -165 -152 -330 -177 -435 -34 -142
-22 -139 39 12 82 204 133 310 186 390 52 79 64 89 76 68 38 -68 243 -323 329
-408 98 -98 189 -164 206 -147 4 3 -40 55 -97 114 -245 254 -401 468 -384 524
10 32 229 247 320 316 260 194 532 308 835 349 361 48 758 -36 1167 -245 124
-64 317 -181 344 -209 22 -22 37 -287 46 -777 12 -734 -45 -1337 -155 -1625
-12 -31 -117 -132 -243 -233 -409 -326 -936 -581 -1505 -725 -294 -75 -508
-109 -899 -142 -685 -58 -1043 -106 -1338 -181 -281 -71 -474 -172 -667 -349
l-55 -50 82 55 c263 178 679 313 1153 374 243 32 408 41 790 46 195 2 402 9
460 15 771 80 1434 322 1970 719 l34 26 -42 -79 c-69 -128 -158 -243 -292
-377 -248 -251 -535 -424 -895 -542 -188 -62 -348 -97 -625 -136 -109 -16 155
-2 295 15 489 60 923 245 1251 533 211 184 397 449 515 731 16 39 49 82 114
150 284 297 507 682 594 1028 134 529 8 1043 -371 1516 l-55 69 -6 241 c-5
242 -17 352 -59 546 -43 204 -144 461 -240 615 -139 221 -338 401 -559 504
-194 91 -329 119 -619 128 -551 17 -991 -142 -1263 -455 -32 -37 -64 -67 -70
-67 -20 0 -134 233 -176 360 -22 66 -48 161 -57 210 -21 109 -24 295 -5 387
l13 68 125 40 c320 104 607 150 943 150 210 0 315 -9 481 -40 954 -180 1650
-913 2003 -2111 l54 -184 27 -1655 27 -1656 -36 -109 c-144 -429 -467 -826
-879 -1082 -114 -70 -340 -180 -470 -228 -306 -112 -687 -185 -1060 -204
l-152 -7 100 -8 c122 -11 438 7 621 33 668 98 1221 386 1568 814 131 163 252
366 326 549 l23 57 48 -110 c57 -132 136 -271 227 -398 79 -111 253 -296 361
-383 434 -350 1007 -540 1701 -563 96 -3 204 -2 240 3 l65 9 -91 2 c-50 0
-160 8 -245 16 -648 62 -1158 249 -1569 576 -96 76 -283 264 -351 354 -131
171 -252 396 -310 579 l-33 101 28 1660 27 1660 46 155 c186 632 464 1138 824
1500 344 346 744 552 1240 640 173 31 545 39 743 16 244 -28 575 -105 712
-166 40 -17 42 -20 53 -82 6 -36 11 -118 11 -182 0 -200 -52 -401 -161 -621
-89 -180 -73 -174 -175 -67 -156 166 -329 274 -561 351 -200 67 -337 86 -618
85 -271 0 -388 -14 -535 -63 -198 -67 -357 -166 -511 -320 -250 -251 -405
-594 -474 -1049 -21 -143 -38 -424 -30 -513 l6 -77 -81 -103 c-208 -266 -332
-534 -382 -823 -26 -157 -21 -436 11 -586 83 -386 309 -793 626 -1125 64 -67
83 -96 121 -180 291 -654 859 -1072 1634 -1204 111 -19 447 -47 456 -38 2 2
-42 9 -98 16 -769 90 -1413 464 -1740 1008 -26 43 -50 86 -54 96 -4 10 39 -15
102 -59 438 -307 975 -520 1560 -619 257 -44 420 -56 789 -61 375 -4 553 -14
790 -44 470 -60 892 -197 1155 -374 l85 -57 -50 45 c-363 331 -733 429 -2015
536 -538 45 -927 126 -1331 276 -475 176 -928 444 -1219 721 -86 82 -91 88
-115 165 -51 160 -90 403 -117 723 -17 201 -17 1141 0 1409 11 166 16 202 30
213 59 46 281 173 412 237 575 278 1107 298 1610 60 240 -114 484 -307 638
-506 12 -15 10 -25 -11 -70 -41 -91 -199 -286 -391 -485 -93 -97 -95 -117 -8
-66 92 54 283 265 426 471 l51 74 38 -43 c47 -53 147 -250 217 -431 30 -76 55
-136 57 -135 7 8 -22 142 -47 219 -33 97 -117 286 -177 393 l-38 70 48 108
c61 138 110 284 138 417 31 144 34 479 5 610 -35 161 -108 337 -190 458 l-36
53 51 67 c123 162 203 404 244 737 8 66 15 149 15 186 0 103 0 103 83 57 651
-369 1133 -1061 1311 -1883 20 -90 24 -102 25 -65 3 126 -44 402 -100 597
-175 607 -628 1176 -1221 1532 l-111 67 -23 105 c-132 593 -544 1070 -1146
1328 -121 52 -254 97 -330 111 -110 21 -354 31 -503 20 -497 -35 -904 -219
-1250 -565 -186 -185 -337 -404 -466 -670 -66 -137 -144 -333 -136 -341 2 -3
28 29 56 71 550 795 1297 1256 2036 1255 137 0 204 -13 360 -66 535 -181 929
-512 1106 -928 27 -63 70 -207 65 -213 -2 -2 -81 17 -177 41 -198 51 -425 90
-613 107 -161 15 -502 6 -646 -16 -503 -77 -941 -292 -1310 -642 -362 -344
-663 -830 -840 -1358 l-47 -140 -28 90 c-74 246 -240 599 -392 837 -421 657
-982 1060 -1659 1192 -197 38 -359 50 -598 43 -312 -9 -566 -51 -933 -153 -30
-8 -30 -2 13 125 68 206 175 372 349 546 213 213 464 360 824 483 l136 46 195
0 c203 1 266 -6 441 -50 217 -54 464 -159 654 -279 317 -199 650 -524 909
-886 49 -68 85 -113 81 -99 -68 229 -229 544 -388 756 -372 498 -856 769
-1452 814 -135 10 -165 10 -285 3z m96 -2394 c291 -29 511 -133 702 -333 182
-191 312 -444 402 -780 35 -132 76 -365 86 -493 l7 -93 -69 46 c-255 167 -575
276 -922 314 -138 15 -522 7 -630 -13 l-74 -13 -71 49 c-97 66 -147 107 -246
202 -173 164 -337 347 -489 548 -60 78 -60 72 20 174 126 159 370 299 624 359
180 42 442 55 660 33z m4644 -14 c112 -20 302 -81 391 -126 35 -17 97 -54 137
-82 74 -51 213 -190 244 -244 l17 -29 -56 -75 c-195 -257 -495 -572 -670 -702
-56 -41 -112 -78 -123 -82 -12 -4 -61 -1 -108 7 -134 20 -598 17 -727 -5 -121
-21 -273 -59 -374 -93 -100 -34 -322 -141 -411 -198 -39 -25 -73 -46 -77 -46
-10 0 6 182 28 312 95 561 316 979 635 1199 126 87 332 158 511 178 132 14
470 6 583 -14z m-5868 -863 c176 -196 384 -367 582 -477 l68 -38 -91 -33
c-128 -46 -305 -135 -430 -218 -117 -78 -295 -246 -354 -335 l-35 -53 -27 42
c-70 111 -135 312 -156 483 -32 257 45 578 196 828 l37 59 59 -77 c33 -43 101
-124 151 -181z m6812 118 c202 -396 213 -810 31 -1170 -57 -112 -55 -111 -99
-43 -59 90 -218 240 -342 323 -122 82 -321 183 -443 226 -45 16 -81 31 -81 34
0 3 26 18 57 34 78 38 190 114 299 202 117 95 340 324 429 442 81 107 68 111
149 -48z m-4065 -1570 c272 -535 201 -1161 -195 -1723 -31 -43 -57 -77 -59
-75 -1 2 10 53 25 113 74 293 115 773 127 1474 l6 383 24 -38 c13 -22 46 -82
72 -134z m1150 -810 c24 -387 62 -691 109 -879 19 -75 23 -106 14 -99 -32 27
-160 234 -219 353 -260 534 -252 1059 25 1530 l47 80 6 -400 c4 -220 12 -483
18 -585z"/>
<path d="M7176 11019 c-66 -16 -174 -79 -254 -149 -42 -36 -78 -73 -80 -82 -4
-23 93 -42 167 -33 78 9 195 50 263 91 102 62 135 126 83 160 -30 19 -126 27
-179 13z"/>
<path d="M7701 10460 c-35 -5 -66 -11 -68 -14 -9 -9 179 -126 294 -183 90 -44
126 -56 176 -60 51 -4 66 -2 80 11 41 42 28 129 -28 181 -50 48 -121 67 -265
70 -69 2 -154 0 -189 -5z"/>
<path d="M6864 10129 c-38 -11 -94 -71 -94 -101 0 -33 70 -92 131 -111 78 -25
213 -39 294 -32 91 8 222 32 271 49 l39 13 -85 43 c-233 117 -447 171 -556
139z"/>
<path d="M11543 11019 c-36 -11 -57 -40 -48 -68 9 -28 87 -96 142 -124 119
-61 253 -87 347 -67 31 6 56 15 56 19 0 4 -28 35 -63 68 -149 143 -311 207
-434 172z"/>
<path d="M10853 10456 c-92 -21 -140 -52 -169 -108 -19 -36 -18 -98 2 -126 12
-18 25 -22 64 -22 86 0 216 58 409 183 92 60 94 61 65 69 -57 16 -305 19 -371
4z"/>
<path d="M11815 10125 c-33 -7 -100 -27 -148 -45 -97 -34 -303 -128 -296 -134
12 -12 179 -47 269 -57 234 -25 460 42 460 138 0 92 -123 134 -285 98z"/>
<path d="M13272 13414 c-74 -229 -102 -382 -102 -556 0 -180 38 -297 122 -379
45 -44 57 -44 120 -4 24 16 46 44 65 82 25 52 28 71 32 174 3 128 -7 213 -45
364 -25 103 -98 326 -131 404 l-19 44 -42 -129z"/>
<path d="M5506 13398 c-189 -524 -190 -868 -4 -943 37 -15 38 -15 74 17 168
147 177 483 26 946 -20 61 -39 112 -42 112 -4 0 -28 -60 -54 -132z"/>
<path d="M9024 13098 c-42 -95 -13 -206 73 -277 42 -35 151 -94 214 -116 l41
-15 -6 38 c-20 111 -78 233 -144 305 -47 50 -125 107 -147 107 -7 0 -21 -19
-31 -42z"/>
<path d="M9775 13118 c-102 -54 -205 -209 -238 -361 l-15 -68 21 7 c62 18 190
89 237 131 63 56 90 110 90 178 0 48 -31 135 -47 135 -4 -1 -26 -10 -48 -22z"/>
<path d="M8014 12893 c-81 -168 85 -401 434 -612 40 -24 75 -41 78 -38 18 17
-101 335 -168 450 -80 138 -201 237 -289 237 -33 0 -39 -4 -55 -37z"/>
<path d="M10743 12917 c-99 -37 -184 -136 -269 -312 -47 -96 -107 -261 -128
-349 l-7 -28 38 22 c332 198 492 371 501 540 4 89 -18 134 -68 137 -19 1 -49
-3 -67 -10z"/>
<path d="M4622 11924 c-132 -29 -283 -104 -440 -218 -41 -30 -70 -56 -65 -59
19 -11 124 -37 207 -52 308 -53 555 30 659 223 l28 51 -40 21 c-97 49 -224 62
-349 34z"/>
<path d="M14005 11927 c-54 -14 -122 -44 -131 -58 -8 -14 32 -82 80 -136 49
-54 146 -110 231 -134 33 -9 101 -14 200 -13 131 0 165 4 263 29 61 15 112 32
112 36 0 8 -105 86 -185 136 -72 46 -210 109 -280 128 -82 22 -228 28 -290 12z"/>
<path d="M7586 11719 c-50 -12 -159 -70 -214 -113 -40 -32 -42 -35 -23 -45 76
-41 376 33 412 102 26 48 -72 80 -175 56z"/>
<path d="M11152 11715 c-62 -27 -53 -59 29 -100 73 -38 186 -65 264 -65 74 0
103 10 90 30 -16 26 -161 111 -222 130 -76 23 -116 25 -161 5z"/>
<path d="M5385 11502 c-91 -56 -130 -165 -129 -352 1 -74 8 -163 19 -218 17
-91 18 -93 37 -75 33 30 105 155 133 233 37 101 45 252 18 355 -20 78 -31 86
-78 57z"/>
<path d="M13414 11458 c-38 -132 -18 -310 48 -442 40 -81 109 -179 119 -169
15 17 39 202 39 308 0 174 -39 286 -118 340 -56 38 -67 34 -88 -37z"/>
<path d="M4481 11445 c-173 -38 -352 -169 -469 -342 -40 -59 -112 -190 -112
-205 0 -11 171 38 288 82 150 57 245 113 328 195 82 80 107 137 102 227 -3 53
-3 53 -38 55 -19 1 -64 -4 -99 -12z"/>
<path d="M14256 11424 c-19 -97 43 -214 157 -300 109 -81 267 -152 459 -204
l108 -29 -16 37 c-76 183 -256 383 -416 461 -69 34 -202 71 -253 71 -30 0 -33
-4 -39 -36z"/>
<path d="M8357 11028 c-24 -89 185 -279 271 -247 42 16 23 139 -31 198 -37 39
-115 71 -178 71 -50 0 -57 -3 -62 -22z"/>
<path d="M10368 11035 c-83 -31 -130 -89 -143 -177 -6 -39 -4 -49 14 -67 35
-35 102 -10 189 73 61 58 95 115 90 154 -3 25 -6 27 -58 29 -30 1 -71 -4 -92
-12z"/>
<path d="M14156 10650 c-90 -108 -33 -301 151 -509 l48 -54 7 34 c16 75 21
236 9 304 -22 125 -83 216 -163 244 -24 9 -30 6 -52 -19z"/>
<path d="M4560 10603 c-87 -73 -81 -213 20 -418 27 -55 73 -136 101 -179 61
-92 59 -94 84 70 23 146 17 326 -14 406 -20 52 -95 138 -120 138 -5 0 -16 2
-24 6 -8 3 -29 -7 -47 -23z"/>
<path d="M8870 10079 c0 -7 7 -39 16 -71 28 -99 119 -178 219 -190 30 -3 30
-3 28 46 -2 60 -26 126 -56 154 -48 45 -207 92 -207 61z"/>
<path d="M9917 10079 c-112 -26 -177 -109 -177 -226 0 -42 0 -42 33 -37 123
23 202 103 226 227 8 46 8 47 -18 46 -14 -1 -43 -5 -64 -10z"/>
<path d="M8895 9649 c4 -13 34 -78 66 -145 60 -125 127 -214 159 -214 47 0 64
83 31 155 -22 49 -140 160 -211 199 l-52 28 7 -23z"/>
<path d="M9892 9614 c-127 -87 -184 -161 -184 -239 0 -94 47 -113 107 -42 30
35 147 256 168 320 10 27 -3 21 -91 -39z"/>
<path d="M7274 9586 c-17 -8 -40 -26 -52 -41 -110 -139 236 -316 541 -277 51
6 110 17 132 23 l40 11 -30 24 c-17 14 -68 51 -115 83 -227 156 -416 220 -516
177z"/>
<path d="M11405 9576 c-121 -40 -314 -150 -425 -244 l-35 -30 40 -11 c268 -75
625 14 684 172 17 44 -8 93 -61 117 -56 26 -117 24 -203 -4z"/>
<path d="M6540 8398 c-71 -48 -98 -141 -63 -215 53 -113 295 -203 544 -203
105 0 249 17 249 30 0 15 -161 159 -260 234 -55 41 -142 96 -194 122 -81 40
-106 48 -168 51 -65 4 -77 2 -108 -19z"/>
<path d="M12125 8397 c-72 -27 -158 -78 -263 -157 -89 -66 -262 -218 -262
-230 0 -4 39 -14 87 -20 115 -17 313 -7 420 19 203 50 339 170 308 273 -15 51
-55 106 -89 122 -47 22 -129 19 -201 -7z"/>
<path d="M5436 8225 c-39 -42 -51 -106 -51 -265 0 -146 21 -356 36 -366 20
-12 161 238 201 355 29 88 30 190 2 228 -54 73 -144 96 -188 48z"/>
<path d="M13312 8233 c-108 -53 -108 -203 0 -418 41 -81 138 -238 144 -233 11
11 36 265 37 373 1 147 -13 222 -50 266 -29 34 -77 39 -131 12z"/>
<path d="M4234 8205 c-10 -53 1 -146 21 -186 60 -118 205 -222 408 -294 43
-15 80 -25 84 -21 3 3 -13 50 -36 105 -102 240 -270 410 -421 428 l-49 6 -7
-38z"/>
<path d="M14518 8221 c-140 -55 -265 -205 -359 -426 -29 -69 -35 -91 -24 -93
21 -5 190 65 270 111 88 51 180 138 211 199 27 53 40 147 26 193 -7 25 -14 30
-43 32 -19 2 -55 -6 -81 -16z"/>
<path d="M3801 8095 c-85 -77 -89 -201 -15 -389 33 -83 103 -218 124 -239 10
-12 65 132 79 207 29 160 -14 329 -109 421 l-38 37 -41 -37z"/>
<path d="M14986 8087 c-19 -24 -50 -74 -68 -113 -32 -67 -33 -72 -33 -199 1
-122 3 -135 34 -217 18 -49 36 -90 40 -93 10 -6 92 141 126 225 79 198 73 345
-17 414 -19 14 -38 26 -41 26 -3 0 -22 -19 -41 -43z"/>
<path d="M4512 7518 c-30 -15 -72 -97 -72 -141 0 -104 136 -155 435 -163 l170
-5 -73 69 c-186 177 -382 279 -460 240z"/>
<path d="M14226 7505 c-79 -32 -173 -96 -297 -202 l-104 -88 100 -3 c127 -4
297 13 377 38 124 38 163 103 117 195 -45 89 -89 103 -193 60z"/>
<path d="M4203 7278 c-78 -119 -39 -282 108 -457 l63 -75 14 35 c21 48 27 176
12 241 -17 74 -72 176 -128 237 l-47 52 -22 -33z"/>
<path d="M14598 7252 c-90 -101 -147 -257 -133 -367 8 -62 26 -125 36 -125 21
0 125 134 162 209 36 73 42 95 45 160 3 64 -1 83 -20 121 -13 24 -28 46 -34
47 -6 2 -31 -18 -56 -45z"/>
<path d="M7826 4649 c-200 -26 -348 -98 -468 -228 -62 -67 -119 -173 -143
-266 -18 -70 -20 -250 -4 -327 53 -250 273 -441 584 -504 101 -21 353 -29 455
-15 118 16 158 28 175 55 22 33 62 313 48 327 -18 18 -31 3 -47 -54 -33 -114
-99 -167 -236 -188 -244 -37 -450 65 -544 272 -48 105 -61 173 -60 324 0 125
3 148 27 219 46 132 111 206 217 248 80 32 264 32 367 0 122 -38 195 -112 209
-212 9 -66 14 -80 29 -80 20 0 23 19 31 216 l6 181 -63 6 c-35 3 -113 13 -174
21 -119 17 -299 19 -409 5z"/>
<path d="M9924 4646 c-184 -42 -310 -174 -322 -335 -13 -188 69 -307 335 -489
188 -129 237 -192 219 -286 -24 -127 -261 -157 -413 -52 -61 41 -101 105 -113
180 -11 68 -15 75 -35 55 -10 -10 -16 -54 -21 -166 -8 -178 -4 -192 73 -217
121 -40 359 -46 478 -13 125 35 235 119 282 216 25 51 28 66 28 166 0 92 -4
118 -22 157 -42 91 -142 179 -355 312 -118 74 -161 116 -179 176 -24 79 26
167 107 189 98 27 222 -1 295 -66 36 -33 46 -54 75 -160 2 -7 10 -13 17 -13
12 0 16 32 22 151 4 83 3 155 -2 160 -35 35 -359 60 -469 35z"/>
<path d="M8695 4630 c-11 -17 5 -30 36 -30 50 0 97 -25 106 -57 4 -15 8 -264
8 -553 0 -628 2 -613 -102 -628 -33 -5 -48 -12 -48 -22 0 -13 46 -15 340 -15
295 0 340 2 340 15 0 11 -17 17 -59 22 -75 10 -103 28 -113 75 -4 21 -8 275
-8 565 0 520 0 527 21 555 15 20 35 31 70 39 33 7 50 16 52 27 3 16 -21 17
-317 17 -202 0 -322 -4 -326 -10z"/>
<path d="M10620 4621 c0 -16 6 -21 28 -21 48 0 101 -20 114 -43 10 -17 13
-145 13 -557 0 -639 2 -628 -104 -640 -32 -3 -46 -10 -46 -20 0 -13 46 -15
343 -18 329 -2 342 -2 342 16 0 16 -10 20 -58 25 -70 6 -97 21 -114 62 -17 44
-25 1070 -8 1090 8 10 31 15 64 15 133 -1 229 -109 245 -277 20 -213 -42 -323
-192 -342 -37 -4 -52 -10 -52 -21 0 -12 18 -16 88 -18 207 -7 393 90 469 246
30 60 33 75 33 157 0 71 -5 100 -22 137 -46 100 -138 169 -275 204 -52 14
-134 18 -465 21 l-403 5 0 -21z"/>
<path d="M9662 3099 c-115 -71 -116 -71 -64 -63 l42 7 -2 -208 c-3 -223 0
-209 -58 -233 -19 -8 11 -11 120 -11 128 1 141 2 110 13 -48 17 -51 38 -48
313 2 127 1 233 -2 235 -3 3 -47 -21 -98 -53z"/>
<path d="M8665 3144 c-84 -22 -85 -23 -85 -72 0 -60 15 -87 24 -45 10 46 50
78 96 78 70 0 107 -62 97 -165 -8 -94 -58 -171 -181 -277 -36 -31 -66 -60 -66
-65 0 -11 361 -10 379 1 14 9 30 76 30 126 l0 30 -14 -26 c-20 -36 -62 -49
-163 -49 l-85 0 64 49 c121 91 168 165 169 261 0 68 -23 110 -76 135 -38 18
-149 29 -189 19z"/>
<path d="M9220 3144 c-114 -38 -161 -104 -176 -247 -12 -122 37 -246 116 -292
76 -43 210 -16 259 54 84 118 78 332 -13 426 -51 53 -128 77 -186 59z m62 -45
c37 -20 61 -95 66 -209 7 -175 -29 -282 -90 -267 -59 15 -92 128 -86 292 4
107 13 139 46 178 17 20 35 21 64 6z"/>
<path d="M10031 3135 c-24 -7 -54 -24 -67 -36 -62 -58 -46 -168 31 -219 l26
-17 -45 -28 c-74 -47 -95 -114 -53 -176 44 -67 156 -95 260 -65 149 43 179
194 55 283 l-49 36 31 15 c45 22 70 58 70 104 0 92 -128 144 -259 103z m134
-50 c32 -31 34 -91 4 -129 -20 -25 -21 -25 -52 -10 -52 26 -87 65 -87 95 0 64
87 92 135 44z m-54 -274 c89 -56 113 -118 64 -166 -37 -38 -88 -34 -132 10
-33 33 -35 39 -31 85 5 46 29 100 46 100 5 0 28 -13 53 -29z"/>
<path d="M14545 16794 c-404 -59 -785 -259 -1031 -542 l-65 -74 53 -37 c168
-119 908 -621 915 -621 12 0 163 156 212 219 119 153 177 305 191 495 10 141
18 162 88 228 84 78 279 160 452 190 39 7 70 16 70 20 0 11 -186 67 -319 95
-98 21 -148 25 -326 28 -115 2 -223 1 -240 -1z"/>
<path d="M3037 16320 c-182 -387 -236 -762 -161 -1130 36 -179 134 -416 238
-578 64 -100 166 -223 183 -220 7 2 189 194 403 427 l389 424 -41 59 c-118
168 -267 305 -402 372 -73 36 -175 67 -280 87 -52 10 -66 18 -111 63 -40 40
-59 70 -82 131 -38 98 -62 211 -70 330 -10 143 -14 145 -66 35z"/>
<path d="M15525 15749 c-314 -33 -683 -186 -885 -367 l-45 -41 40 -39 c22 -21
209 -206 416 -411 l376 -372 94 63 c51 35 135 104 185 153 141 138 216 269
254 441 10 46 27 99 39 118 61 97 249 162 504 173 70 3 127 10 127 14 0 15
-283 147 -390 182 -247 82 -484 110 -715 86z"/>
<path d="M1902 15053 c-167 -632 -32 -1206 388 -1656 88 -94 208 -193 220
-181 5 5 146 227 315 494 l305 484 -62 64 c-140 142 -319 251 -483 292 -48 13
-127 23 -200 26 -104 4 -124 8 -161 29 -85 50 -160 171 -223 360 -22 66 -43
139 -47 163 -4 23 -10 42 -14 42 -4 0 -21 -53 -38 -117z"/>
<path d="M16290 14554 c-108 -11 -279 -47 -388 -83 -142 -46 -325 -136 -320
-156 2 -8 149 -223 328 -479 374 -536 317 -487 474 -413 252 120 415 280 507
500 51 124 111 164 284 188 85 12 212 6 346 -15 43 -7 79 -10 79 -6 0 4 -28
29 -62 56 -267 210 -542 339 -833 389 -91 16 -332 27 -415 19z"/>
<path d="M1023 13725 c-4 -11 -8 -132 -8 -270 0 -198 4 -269 18 -342 50 -263
143 -481 297 -695 78 -110 283 -306 404 -386 59 -40 130 -84 157 -98 l49 -24
10 25 c6 15 102 255 215 535 113 279 205 514 205 521 0 18 -141 109 -246 159
-169 81 -358 115 -514 91 -158 -25 -155 -25 -214 2 -104 48 -217 191 -316 400
-40 84 -50 98 -57 82z"/>
<path d="M16810 13239 c-187 -13 -459 -79 -452 -110 6 -23 472 -1033 482
-1043 12 -12 193 33 297 73 180 70 339 197 437 349 70 107 134 141 268 142 79
0 236 -32 359 -73 57 -19 105 -34 107 -32 7 6 -119 144 -210 230 -216 204
-477 350 -750 420 -167 42 -347 57 -538 44z"/>
<path d="M390 12136 c0 -19 7 -88 15 -153 80 -613 399 -1075 925 -1338 100
-50 243 -105 272 -105 9 0 46 160 130 568 106 516 115 568 101 579 -23 18
-183 78 -278 105 -69 20 -103 23 -250 23 l-170 0 -107 -38 c-128 -45 -164 -46
-243 -8 -105 51 -215 158 -332 324 -30 42 -57 77 -59 77 -2 0 -4 -16 -4 -34z"/>
<path d="M16972 11850 c-29 -4 -56 -11 -59 -14 -3 -3 59 -258 138 -566 l144
-560 77 0 c170 0 337 38 484 110 87 42 117 64 212 153 125 119 162 135 270
122 111 -14 291 -83 430 -164 29 -18 52 -26 52 -20 0 18 -103 181 -173 274
-33 44 -114 134 -181 200 -233 232 -497 375 -824 446 -77 17 -141 22 -307 24
-115 2 -234 0 -263 -5z"/>
<path d="M40 10512 c0 -29 75 -262 115 -357 240 -574 722 -943 1343 -1029 l42
-6 1 117 c0 65 6 327 13 583 6 276 7 468 2 472 -5 3 -57 17 -115 29 -87 19
-135 24 -266 24 -215 0 -279 -19 -510 -148 -115 -64 -301 17 -524 229 -56 53
-101 91 -101 86z"/>
<path d="M17220 10454 c-1 -21 82 -1159 84 -1161 12 -13 199 -24 330 -21 147
5 169 8 256 36 92 31 201 89 287 153 23 17 60 35 83 39 114 21 301 -64 508
-232 39 -33 72 -54 72 -48 0 22 -69 188 -123 296 -280 559 -781 894 -1404 940
-52 4 -93 3 -93 -2z"/>
<path d="M17276 9009 c-3 -19 -31 -268 -61 -554 -30 -286 -57 -532 -60 -547
-4 -27 -2 -28 93 -58 155 -49 257 -63 412 -57 149 5 221 22 344 83 38 18 84
36 102 40 44 8 125 -17 203 -63 63 -37 230 -192 305 -283 l37 -45 -6 59 c-10
89 -60 284 -101 394 -188 503 -570 864 -1081 1021 -54 17 -117 33 -140 37 -41
6 -42 6 -47 -27z"/>
<path d="M1176 8869 c-185 -28 -338 -98 -471 -217 -64 -57 -100 -72 -175 -72
-111 0 -268 66 -444 187 -43 29 -81 51 -84 48 -8 -7 60 -147 124 -255 250
-426 638 -711 1106 -810 123 -26 379 -46 439 -34 l46 9 -90 570 c-49 314 -91
572 -94 575 -8 9 -297 8 -357 -1z"/>
<path d="M16922 7092 c-89 -301 -162 -555 -162 -563 0 -20 177 -108 295 -148
50 -17 124 -35 165 -42 101 -16 266 -6 360 21 41 12 94 22 117 21 62 -1 138
-44 219 -125 69 -68 195 -247 223 -314 7 -17 17 -32 22 -32 12 0 11 175 -1
301 -55 536 -307 969 -730 1254 -94 63 -274 158 -321 170 -24 6 -25 4 -187
-543z"/>
<path d="M1605 7455 c-121 -22 -294 -81 -379 -131 -85 -50 -197 -150 -253
-227 -96 -130 -286 -130 -597 2 -64 27 -116 46 -116 42 0 -13 79 -122 146
-201 219 -262 476 -441 774 -541 205 -68 459 -99 669 -80 138 13 281 40 287
55 3 7 -80 255 -184 551 l-189 540 -39 2 c-21 1 -75 -5 -119 -12z"/>
<path d="M16381 5777 l-264 -521 44 -38 c59 -52 189 -138 266 -177 150 -75
312 -106 478 -90 124 11 169 -6 251 -93 80 -85 164 -242 219 -407 22 -67 27
-59 51 79 26 147 27 514 1 645 -69 346 -216 625 -461 871 -93 93 -233 206
-295 239 l-26 13 -264 -521z"/>
<path d="M2111 6100 c-285 -99 -456 -235 -580 -462 -70 -128 -121 -152 -321
-152 -112 0 -156 5 -254 28 -65 15 -125 30 -132 33 -37 14 -4 -25 93 -112 146
-130 264 -212 414 -289 230 -119 431 -172 690 -183 184 -7 301 5 479 48 136
34 300 95 300 112 0 6 -127 235 -282 509 -229 404 -286 498 -303 497 -11 0
-58 -13 -104 -29z"/>
<path d="M15616 4589 c-322 -427 -347 -463 -336 -484 20 -38 177 -192 253
-249 138 -104 277 -157 454 -175 50 -5 104 -16 120 -25 107 -55 208 -266 244
-507 7 -46 15 -88 19 -92 9 -10 70 157 104 285 92 338 83 684 -25 1001 -42
123 -144 321 -226 435 -68 95 -230 272 -248 272 -5 0 -167 -208 -359 -461z"/>
<path d="M2830 4852 c-122 -68 -174 -106 -263 -191 -118 -113 -179 -210 -231
-367 -58 -175 -183 -230 -519 -228 -98 1 -175 -2 -170 -6 28 -27 216 -139 308
-185 484 -237 1010 -241 1490 -10 79 38 204 112 229 135 10 10 -730 900 -748
900 -6 0 -49 -22 -96 -48z"/>
<path d="M14656 3558 c-330 -302 -426 -396 -422 -411 9 -36 112 -189 181 -269
121 -141 265 -234 430 -278 44 -12 96 -32 116 -45 101 -65 158 -259 160 -540
0 -127 -3 -128 83 24 253 449 309 939 160 1396 -51 156 -211 457 -269 505 -10
8 -112 -81 -439 -382z"/>
<path d="M3769 3762 c-97 -77 -235 -224 -277 -295 -63 -105 -101 -207 -121
-329 -11 -65 -24 -125 -30 -135 -14 -26 -80 -86 -121 -111 -79 -47 -268 -97
-445 -118 l-60 -7 70 -33 c92 -44 296 -111 409 -134 517 -107 1021 19 1426
356 96 79 126 112 114 123 -5 4 -200 167 -434 361 -234 194 -432 359 -441 367
-15 12 -25 7 -90 -45z"/>
<path d="M13525 2715 c-264 -167 -484 -306 -489 -308 -22 -8 81 -247 156 -363
90 -138 196 -233 343 -306 44 -22 93 -52 108 -67 61 -56 87 -146 87 -300 0
-89 -28 -298 -46 -345 -26 -68 117 95 227 258 135 200 213 377 265 601 26 112
28 135 29 340 0 245 -15 350 -76 536 -35 106 -103 259 -116 259 -4 0 -224
-138 -488 -305z"/>
<path d="M4867 2841 c-126 -146 -205 -285 -248 -432 -16 -57 -22 -110 -26
-228 -3 -125 -7 -160 -23 -191 -49 -95 -228 -207 -433 -271 -56 -18 -106 -35
-110 -39 -9 -8 110 -38 243 -62 48 -8 155 -13 300 -13 195 1 239 4 330 23 297
65 538 185 771 387 121 104 290 308 271 326 -14 14 -987 562 -1002 565 -9 2
-40 -25 -73 -65z"/>
<path d="M12257 2086 c-290 -118 -531 -217 -534 -220 -10 -10 13 -141 42 -241
65 -227 175 -389 355 -522 93 -68 115 -117 114 -243 0 -112 -26 -226 -84 -373
-22 -56 -37 -103 -35 -105 21 -22 362 311 455 445 155 221 249 454 292 718 18
117 15 408 -6 527 -21 118 -49 221 -62 225 -5 1 -247 -94 -537 -211z"/>
<path d="M6133 2163 c-42 -66 -114 -216 -138 -287 -48 -145 -59 -326 -28 -464
26 -115 22 -160 -18 -228 -59 -97 -208 -215 -381 -300 -43 -21 -78 -42 -78
-47 0 -6 98 -7 233 -5 259 6 366 22 553 83 360 118 684 376 891 710 40 64 108
203 103 208 -3 2 -196 70 -430 152 -234 81 -480 167 -548 191 l-123 43 -36
-56z"/>
<path d="M10888 1692 l-558 -116 0 -122 c0 -289 77 -504 244 -683 43 -46 79
-93 86 -116 37 -111 -31 -328 -167 -539 -24 -37 -42 -71 -39 -73 8 -9 174 85
281 158 333 227 554 517 669 877 56 175 78 317 79 517 1 172 -5 216 -26 214
-7 0 -263 -53 -569 -117z"/>
<path d="M7462 1628 c-96 -288 -96 -485 0 -723 48 -120 47 -151 -9 -258 -28
-54 -64 -98 -143 -177 -58 -58 -132 -123 -163 -145 -31 -22 -57 -43 -57 -47 0
-10 88 1 230 28 563 111 991 435 1226 929 49 103 117 298 112 323 -3 13 -94
31 -558 104 -305 48 -565 87 -576 88 -19 0 -27 -16 -62 -122z"/>
<path d="M9290 1547 c-206 -5 -376 -10 -378 -11 -1 -2 -10 -36 -19 -77 -25
-109 -24 -410 1 -499 27 -97 62 -175 118 -262 28 -43 54 -95 58 -115 25 -109
-66 -295 -242 -495 -38 -42 -68 -79 -68 -82 0 -9 165 47 281 96 331 139 605
369 788 659 125 200 222 486 246 732 l7 67 -209 -2 c-114 -1 -377 -5 -583 -11z"/>
</g>
</svg>
